#tb 0: 1001/30000
0,          0,          0,        1,   460800, 0x6a817987
0,          1,          1,        1,   460800, 0x2f713ec2
0,          2,          2,        1,   460800, 0x003b560e
0,          3,          3,        1,   460800, 0x9e1bbf63
